<svg width="378" height="120" viewBox="0 0 378 120" xmlns="http://www.w3.org/2000/svg"><g fill="none"><path fill="#D6001C" d="M0-.153h378v120H0z"/><path d="M50.476 66.765H69.67V53.216H50.476a5.527 5.527 0 01-5.53-5.525 5.527 5.527 0 015.53-5.526H69.67V26.48H44.606c-9.657.013-17.483 7.834-17.497 17.485v.729A16.757 16.757 0 0037.102 60a16.763 16.763 0 00-9.993 15.306v.38c.027 9.43 7.67 17.067 17.105 17.094H69.67V77.816H50.476a5.512 5.512 0 01-5.514-5.51 5.512 5.512 0 015.514-5.51v-.03zM99.86 26.529H75.197v66.22h17.497V42.202h7.168a6.78 6.78 0 016.578 6.775 6.78 6.78 0 01-6.578 6.774h-1.606v15.673h1.606c12.26-.202 22.094-10.193 22.094-22.447 0-12.255-9.833-22.246-22.094-22.448zm79.803 27.814v-6.025h6.188v6.025zm-40.802-27.808h7.787c6.91 0 14.654 3.587 14.654 13.236 0 9.882-7.67 13.47-14.997 13.47h-7.444V26.535zm5.459 22.09h.613c6.26 0 10.537-2.217 10.537-8.51 0-5.872-3.474-8.964-9.465-8.964h-1.679l-.006 17.473zm26.607-12.785c1.146-1.836 2.708-3.128 4.693-3.128a7.46 7.46 0 012.598.46l-1.3 4.732a4.009 4.009 0 00-1.91-.46 4.43 4.43 0 00-3.775 2.211v13.61h-5.421V33.171h4.692l.423 2.67zm21.871 17.425v-26.73h17.154v4.616h-11.695v6.025h11.683v4.616h-11.683v6.832h11.683v4.641zm37.831-2.045c-1.985 1.751-4.35 2.45-7.217 2.45-5.918 0-10.188-4.286-10.188-10.494-.025-5.83 4.264-10.464 10.341-10.464 2.573-.06 5.08.81 7.064 2.45l-2.788 3.777a5.46 5.46 0 00-3.89-1.592c-3.063 0-5.195 2.633-5.195 5.835 0 3.355 2.255 5.834 5.116 5.834a5.166 5.166 0 003.853-1.524l2.904 3.728zm15.463 2.045l-4.62-7.438-1.93 2.222v5.216h-5.42v-28.64h5.42v16.714h.074l6.494-8.168h6.182l-7.199 8.394 7.64 11.7zM260.71 35.51a7.703 7.703 0 015.918-2.822 6.74 6.74 0 015.342 2.632c1.568 2.027 1.795 4.617 1.795 7.482v10.463h-5.428V43.09c0-1.488-.037-3.166-.613-4.286a2.763 2.763 0 00-2.677-1.408 5.239 5.239 0 00-4.35 2.553v13.316h-5.41v-28.64h5.423V35.51zm30.35 17.755l-.423-1.72c-1.299 1.604-3.32 2.18-5.458 2.18-3.744 0-7.217-2.254-7.217-6.374 0-4.898 4.582-6.484 8.742-6.484a18.17 18.17 0 013.627.417v-.306c0-2.517-1.03-4.041-3.97-4.041a13.13 13.13 0 00-6.065 1.75l-1.452-3.887a20.038 20.038 0 018.626-2.063c5.575 0 8.283 3.245 8.283 8.473v12.055h-4.693zm-.729-8.76c-.9-.218-1.82-.333-2.745-.344-1.985 0-4.288.723-4.288 3.061 0 1.758 1.446 2.676 3.063 2.676a5.908 5.908 0 004.007-1.72l-.037-3.674zm39.399 8.76l-.46-2.449c-1.409 2.21-4.123 2.94-6.181 2.94-5.312 0-9.355-4.734-9.355-10.568 0-5.651 3.97-10.408 9.428-10.408a7.967 7.967 0 015.827 2.338V24.624h5.422v28.641h-4.681zm-.741-13.72a5.84 5.84 0 00-4.656-2.174c-3.474 0-5.073 3.062-5.073 5.909 0 2.938 1.905 5.76 5 5.76a5.257 5.257 0 004.729-2.632v-6.863zm16.351-1.874v7.788a12.11 12.11 0 00.08 1.714c.153 1.182.612 1.91 1.752 1.91a4.646 4.646 0 002.18-.575l1.692 4.004a10.15 10.15 0 01-4.773 1.188c-3.13 0-5.232-1.72-5.955-4.286a11.717 11.717 0 01-.38-3.355v-8.388h-2.407v-4.5h2.408l.827-4.395h4.576v4.426h5.091v4.5l-5.09-.03zM174.388 66.043c4.546 0 10.005 2.216 10.005 8.277 0 6.062-5.422 8.333-10.005 8.333h-3.063v10.071h-5.458V66.043h8.521zm-3.063 12.018h2.175c2.904 0 5.079-.955 5.079-3.624 0-2.364-1.758-3.778-4.356-3.778h-2.898v7.402zm28.451 14.688l-.422-1.714c-1.293 1.598-3.32 2.173-5.459 2.173-3.737 0-7.21-2.253-7.21-6.373 0-4.898 4.576-6.484 8.742-6.484 1.22.017 2.434.157 3.626.416v-.3c0-2.522-1.035-4.047-3.97-4.047a13.08 13.08 0 00-6.07 1.758l-1.453-3.894a20.05 20.05 0 018.626-2.04c5.575 0 8.283 3.24 8.283 8.468v12.055l-4.693-.018zm-.723-8.737a12.763 12.763 0 00-2.75-.343c-1.985 0-4.289.723-4.289 3.062 0 1.75 1.452 2.669 3.063 2.669a5.914 5.914 0 004.013-1.714l-.037-3.674zm32.14-6.826v7.781a11.84 11.84 0 00.08 1.715c.152 1.181.612 1.91 1.751 1.91a4.665 4.665 0 002.181-.576l1.68 4.01a10.218 10.218 0 01-4.773 1.182c-3.131 0-5.232-1.72-5.955-4.286a11.73 11.73 0 01-.386-3.36v-8.376h-2.402V72.68h2.402l.84-4.42h4.582v4.42h5.115v4.506h-5.115zm13.477-4.506l.417 2.749a7.568 7.568 0 016.225-3.184 6.741 6.741 0 015.342 2.633c1.568 2.02 1.795 4.616 1.795 7.475v10.408h-5.428V82.604c0-1.488-.037-3.171-.613-4.286a2.757 2.757 0 00-2.67-1.408 5.239 5.239 0 00-4.357 2.553V92.78h-5.41v-20.1h4.7zm23.018 11.369c.38 2.749 2.175 4.806 5.042 4.806 2.591 0 3.927-1.065 5.226-2.975l3.553 2.406c-2.291 3.318-4.852 4.898-9.19 4.898-6.065 0-10.151-4.237-10.151-10.262 0-6.024 4.454-10.677 10.219-10.677 5.569 0 9.692 3.924 9.692 9.27-.012.856-.1 1.71-.264 2.552l-14.127-.018zm8.859-3.673a3.862 3.862 0 00-4.013-3.894c-2.592 0-4.007 1.64-4.577 3.894h8.59zm-55.022-7.831a7.507 7.507 0 00-2.162-.318c-1.985 0-3.554 1.224-4.7 3.128l-.416-2.675h-4.723v20.069h5.421v-13.58a4.448 4.448 0 013.78-2.216 4.07 4.07 0 011.704.367l1.096-4.775zm76.617 0a7.55 7.55 0 00-2.169-.318c-1.985 0-3.547 1.224-4.692 3.128l-.423-2.675h-4.693v20.069h5.453v-13.58a4.436 4.436 0 013.773-2.216 4.1 4.1 0 011.71.367l1.041-4.775zm14.667-39.484a7.55 7.55 0 00-2.169-.318c-1.985 0-3.547 1.261-4.693 3.128l-.423-2.669h-4.717v20.063h5.422v-13.61a4.442 4.442 0 013.78-2.21 4.07 4.07 0 011.703.367l1.097-4.75zm-156.64 39.221h-5.894v-5.884h-5.526v5.884h-5.888v5.522h5.888v5.89h5.526v-5.89h5.894z" fill="#FFF"/></g></svg>